Coordinates
version=1
nRows=16
nColumns=40
inDegrees=yes

Units are S.I. units (second, meters, Newtons, ...)
If the header above contains a line with 'inDegrees', this indicates whether rotational values are in degrees (yes) or radians (no).

endheader
time	pelvis_tilt	pelvis_list	pelvis_rotation	pelvis_tx	pelvis_ty	pelvis_tz	hip_flexion_r	hip_adduction_r	hip_rotation_r	knee_angle_r	knee_angle_r_beta	ankle_angle_r	subtalar_angle_r	mtp_angle_r	hip_flexion_l	hip_adduction_l	hip_rotation_l	knee_angle_l	knee_angle_l_beta	ankle_angle_l	subtalar_angle_l	mtp_angle_l	lumbar_extension	lumbar_bending	lumbar_rotation	arm_flex_r	arm_add_r	arm_rot_r	elbow_flex_r	pro_sup_r	wrist_flex_r	wrist_dev_r	arm_flex_l	arm_add_l	arm_rot_l	elbow_flex_l	pro_sup_l	wrist_flex_l	wrist_dev_l
      3.35000000	    -21.70053813	      3.64718753	      0.36748904	     -0.38036039	      0.82550056	     -0.79463894	     58.76397852	     -1.02920059	     -8.61459608	     62.92869364	      1.09831290	     14.42809859	      0.00000000	      0.00000000	     44.56077350	    -11.70719476	      1.30128669	     96.93431663	      1.69182298	    -33.83943209	      0.00000000	      0.00000000	     -7.77850892	    -22.52423127	    -16.19383388	     75.22702911	    -16.14216717	     13.20863815	     61.11542626	     87.53316581	      0.00000000	      0.00000000	     89.95806593	     10.13279460	     30.89345086	     42.41136918	     53.37296104	      0.00000000	      0.00000000
      3.35500000	    -21.68870869	      3.69679999	      0.37685736	     -0.37988015	      0.82724606	     -0.79473800	     58.49923135	     -1.04502339	     -8.56054523	     62.48277417	      1.09053014	     14.26033382	      0.00000000	      0.00000000	     44.54738348	    -11.65779587	      1.22638917	     96.87159909	      1.69072836	    -33.80179820	      0.00000000	      0.00000000	     -7.67560184	    -22.58478051	    -16.25120901	     75.11974426	    -16.17699755	     13.22036459	     61.16297902	     87.52814034	      0.00000000	      0.00000000	     89.95789385	     10.08779563	     30.94895147	     42.32811538	     53.42513237	      0.00000000	      0.00000000
      3.36000000	    -21.63443701	      3.69816261	      0.38051526	     -0.37955451	      0.82898009	     -0.79470305	     58.20022249	     -1.00328544	     -8.51113214	     62.03546212	      1.08272307	     14.06178903	      0.00000000	      0.00000000	     44.54086474	    -11.64084972	      1.23601587	     96.88764109	      1.69100834	    -33.78046266	      0.00000000	      0.00000000	     -7.64642345	    -22.62452073	    -16.23826333	     75.14459938	    -16.16256849	     13.26143177	     61.14179331	     87.54374019	      0.00000000	      0.00000000	     89.95796433	     10.15104961	     31.03007093	     42.28989868	     53.48597352	      0.00000000	      0.00000000
      3.36500000	    -21.55837243	      3.73559622	      0.36763637	     -0.37903371	      0.83080365	     -0.79480440	     57.86751807	     -1.02267253	     -8.50917182	     61.60418207	      1.07519581	     13.87556878	      0.00000000	      0.00000000	     44.46599246	    -11.55757329	      1.21069507	     96.84095676	      1.69019355	    -33.79081213	      0.00000000	      0.00000000	     -7.57860290	    -22.64725099	    -16.23053022	     75.04278316	    -16.20147174	     13.22814119	     61.18205055	     87.53181854	      0.00000000	      0.00000000	     89.95775168	     10.08782631	     31.07265408	     42.24987025	     53.54163304	      0.00000000	      0.00000000
      3.37000000	    -21.51566933	      3.75580553	      0.30615359	     -0.37853785	      0.83251125	     -0.79474661	     57.57688735	     -0.96643127	     -8.48597061	     61.19830983	      1.06811200	     13.71781090	      0.00000000	      0.00000000	     44.43679559	    -11.57259770	      1.15210285	     96.83188639	      1.69003524	    -33.76435013	      0.00000000	      0.00000000	     -7.50539744	    -22.69461810	    -16.20609669	     75.02688057	    -16.18675579	     13.22304851	     61.21559806	     87.52658748	      0.00000000	      0.00000000	     89.95791746	     10.07870948	     31.12204789	     42.20631080	     53.58855709	      0.00000000	      0.00000000
      3.37500000	    -21.38657289	      3.72980040	      0.34240462	     -0.37803678	      0.83444647	     -0.79476878	     57.15310305	     -0.93566887	     -8.46451004	     60.68984334	      1.05923759	     13.50035202	      0.00000000	      0.00000000	     44.35854077	    -11.54833607	      1.19619486	     96.79906486	      1.68946239	    -33.69881873	      0.00000000	      0.00000000	     -7.53907362	    -22.67918523	    -16.23148752	     74.96651804	    -16.20261119	     13.21559857	     61.21884368	     87.52027671	      0.00000000	      0.00000000	     89.95782327	     10.08566181	     31.19490292	     42.14442218	     53.64520399	      0.00000000	      0.00000000
      3.38000000	    -21.32164351	      3.78699723	      0.33888435	     -0.37761257	      0.83616559	     -0.79487750	     56.87160182	     -0.97253076	     -8.43813888	     60.30991809	      1.05260664	     13.30324955	      0.00000000	      0.00000000	     44.30491744	    -11.47449765	      1.14044311	     96.79180845	      1.68933575	    -33.68594482	      0.00000000	      0.00000000	     -7.48312038	    -22.72964431	    -16.22928576	     74.94838942	    -16.18925619	     13.22486448	     61.24034201	     87.51838434	      0.00000000	      0.00000000	     89.95774783	     10.07564839	     31.25009628	     42.12066208	     53.70538821	      0.00000000	      0.00000000
      3.38500000	    -21.25179182	      3.86492715	      0.25674458	     -0.37698767	      0.83788432	     -0.79479821	     56.56068531	     -0.95763355	     -8.39875899	     59.92879259	      1.04595475	     13.14213874	      0.00000000	      0.00000000	     44.22790949	    -11.41153613	      1.05917318	     96.78718380	      1.68925503	    -33.67977378	      0.00000000	      0.00000000	     -7.36257453	    -22.84696664	    -16.13985268	     74.87740166	    -16.18349706	     13.22721768	     61.24453877	     87.51628634	      0.00000000	      0.00000000	     89.95761531	     10.05336245	     31.30687273	     42.05901725	     53.75116946	      0.00000000	      0.00000000
      3.39000000	    -21.15147490	      3.78963616	      0.30052630	     -0.37655911	      0.83983621	     -0.79486462	     56.15890572	     -0.87247255	     -8.36018616	     59.36861026	      1.03617772	     12.82926451	      0.00000000	      0.00000000	     44.18855490	    -11.45757897	      1.11377377	     96.73201706	      1.68829219	    -33.65094600	      0.00000000	      0.00000000	     -7.44678565	    -22.77475185	    -16.35942110	     74.89345673	    -16.03554984	     13.23042435	     61.28960665	     87.51342952	      0.00000000	      0.00000000	     89.95780172	      9.94699890	     31.36260485	     42.09169897	     53.86812295	      0.00000000	      0.00000000
      3.39500000	    -21.08973257	      3.81237274	      0.33755772	     -0.37605768	      0.84164766	     -0.79499132	     55.86536933	     -0.92074192	     -8.38588802	     59.01180415	      1.02995028	     12.69874794	      0.00000000	      0.00000000	     44.19866405	    -11.41347982	      1.06628416	     96.76809789	      1.68892192	    -33.63322724	      0.00000000	      0.00000000	     -7.41975170	    -22.80686567	    -16.38323703	     74.93179231	    -16.03105584	     13.27291286	     61.26894090	     87.52890277	      0.00000000	      0.00000000	     89.95779758	      9.97550461	     31.39649508	     42.09508759	     53.91470481	      0.00000000	      0.00000000
      3.40000000	    -21.02600441	      3.89191741	      0.32839241	     -0.37560215	      0.84337801	     -0.79504763	     55.54293665	     -0.94977823	     -8.33282085	     58.54042009	      1.02172308	     12.49901449	      0.00000000	      0.00000000	     44.14804857	    -11.29286455	      1.03474311	     96.74241891	      1.68847374	    -33.61049093	      0.00000000	      0.00000000	     -7.27393420	    -22.87926320	    -16.24696623	     74.80904562	    -16.14878036	     13.25463983	     61.24640830	     87.52223522	      0.00000000	      0.00000000	     89.95733252	      9.98180762	     31.46830305	     42.02131760	     53.97609387	      0.00000000	      0.00000000
      3.40500000	    -20.77910574	      3.79571822	      0.27390389	     -0.37494379	      0.84550900	     -0.79487692	     54.96049080	     -0.78689722	     -8.33275196	     57.98233785	      1.01198270	     12.18656782	      0.00000000	      0.00000000	     43.90714526	    -11.36787613	      1.07370543	     96.70444201	      1.68781091	    -33.57105136	      0.00000000	      0.00000000	     -7.41194794	    -22.77370380	    -16.16851258	     74.85419192	    -16.15101719	     13.34347055	     61.26777195	     87.55205807	      0.00000000	      0.00000000	     89.95755548	      9.97774855	     31.61301834	     41.95504275	     54.16234915	      0.00000000	      0.00000000
      3.41000000	    -20.82335453	      3.89598672	      0.29647109	     -0.37457302	      0.84707852	     -0.79505712	     54.80522818	     -0.86454424	     -8.26357873	     57.64027918	      1.00601265	     12.07609850	      0.00000000	      0.00000000	     44.02138336	    -11.24855641	      0.96663011	     96.75397206	      1.68867538	    -33.55488237	      0.00000000	      0.00000000	     -7.30325173	    -22.93407483	    -16.36613834	     74.83878228	    -16.06530021	     13.37250723	     61.29411655	     87.55512552	      0.00000000	      0.00000000	     89.95769523	      9.93808513	     31.60407473	     41.96165851	     54.21147473	      0.00000000	      0.00000000
      3.41500000	    -20.78237098	      3.97453426	      0.34600686	     -0.37413923	      0.84885230	     -0.79512675	     54.52555126	     -0.93256626	     -8.20155344	     57.22529315	      0.99876978	     11.91332537	      0.00000000	      0.00000000	     44.06103652	    -11.14799341	      0.92859739	     96.74252817	      1.68847564	    -33.56669524	      0.00000000	      0.00000000	     -7.18665858	    -23.01757775	    -16.28999669	     74.78464608	    -16.14724749	     13.34976762	     61.27059091	     87.55394832	      0.00000000	      0.00000000	     89.95736683	      9.95854865	     31.65603883	     41.91499398	     54.26183333	      0.00000000	      0.00000000
      3.42000000	    -20.70756711	      4.02547718	      0.31520114	     -0.37355958	      0.85067155	     -0.79509379	     54.17579498	     -0.89829114	     -8.10942198	     56.73655678	      0.99023972	     11.68497353	      0.00000000	      0.00000000	     44.01283799	    -11.08834212	      0.86216643	     96.72892191	      1.68823817	    -33.59064510	      0.00000000	      0.00000000	     -7.12079373	    -23.09259472	    -16.30096604	     74.73588613	    -16.10794390	     13.37728530	     61.31960452	     87.55929947	      0.00000000	      0.00000000	     89.95737182	      9.94477891	     31.73673759	     41.83368087	     54.32768397	      0.00000000	      0.00000000
      3.42500000	    -20.50007751	      3.86811713	      0.32042413	     -0.37296144	      0.85275189	     -0.79498410	     53.62633282	     -0.73984498	     -8.20346287	     56.17108920	      0.98037045	     11.35807068	      0.00000000	      0.00000000	     43.88424891	    -11.20729877	      0.97902529	     96.71761732	      1.68804087	    -33.61330535	      0.00000000	      0.00000000	     -7.20770378	    -22.94576710	    -16.28938164	     74.62432210	    -16.16468190	     13.24392619	     61.38190958	     87.51675173	      0.00000000	      0.00000000	     89.95741237	      9.92775936	     31.91167333	     41.75625166	     54.50853192	      0.00000000	      0.00000000
